<svg width="38" height="48" viewBox="0 0 38 48" fill="none" xmlns="http://www.w3.org/2000/svg">
<path d="M22.0459 27.0416C22.0459 27.0416 21.7316 39.2046 23.9318 40.1908C26.132 41.177 23.2773 47.9998 23.2773 47.9998L9.15912 42.4919C9.15912 42.4919 11.9879 26.0554 11.3593 24.7405C10.7307 23.4256 22.0459 27.0416 22.0459 27.0416Z" fill="#9F616A"/>
<path d="M20.6295 34.4149C13.3196 34.4149 7.39369 28.3328 7.39369 20.83C7.39369 13.3273 13.3196 7.24512 20.6295 7.24512C27.9394 7.24512 33.8652 13.3273 33.8652 20.83C33.8652 28.3328 27.9394 34.4149 20.6295 34.4149Z" fill="#9F616A"/>
<path d="M14.1757 41.66C9.25331 41.66 0.499398 44.0269 0.499398 32.5514C0.499398 21.0759 12.3417 11.7734 17.2641 11.7734C22.1865 11.7734 17.2641 11.773 22.1172 13.5847C22.1172 25.0602 19.0981 41.66 14.1757 41.66Z" fill="#19191A"/>
<path d="M25.9606 15.2851C17.2878 15.2851 5.35176 22.244 5.35176 14.3298C5.35176 6.41568 12.3825 0 21.0553 0C29.7281 0 29.1013 9.07556 38 14.3298C38 22.244 34.6334 15.2851 25.9606 15.2851Z" fill="#44437B"/>
<path d="M29.1762 20.8304C28.6889 20.8304 28.2938 20.4249 28.2938 19.9247C28.2938 19.4245 28.6889 19.019 29.1762 19.019C29.6635 19.019 30.0586 19.4245 30.0586 19.9247C30.0586 20.4249 29.6635 20.8304 29.1762 20.8304Z" fill="#3F3D56"/>
<path d="M33.5368 21.6191C31.1065 19.8439 29.9865 21.6189 29.9865 21.6189L29.1758 26.0569C31.5501 26.0569 34.9113 27.1697 35.2555 26.0569C35.2555 26.0569 35.9671 23.3943 33.5368 21.6191Z" fill="#9F616A"/>
</svg>
