<svg width="38" height="30" viewBox="0 0 38 30" fill="none" xmlns="http://www.w3.org/2000/svg">
<path d="M3.61562 29.5832C2.6566 29.5832 1.8559 29.262 1.21354 28.6196C0.571181 27.9773 0.25 27.1766 0.25 26.2175V3.78213C0.25 2.8231 0.571181 2.02241 1.21354 1.38005C1.8559 0.737684 2.6566 0.416504 3.61562 0.416504H34.3844C35.3434 0.416504 36.1441 0.737684 36.7865 1.38005C37.4288 2.02241 37.75 2.8231 37.75 3.78213V26.2175C37.75 27.1766 37.4288 27.9773 36.7865 28.6196C36.1441 29.262 35.3434 29.5832 34.3844 29.5832H3.61562ZM19 15.2405L2.33333 4.34255V26.2175C2.33333 26.5915 2.45347 26.8988 2.69375 27.1394C2.93437 27.3797 3.24167 27.4998 3.61562 27.4998H34.3844C34.7583 27.4998 35.0656 27.3797 35.3063 27.1394C35.5465 26.8988 35.6667 26.5915 35.6667 26.2175V4.34255L19 15.2405ZM19 12.9165L35.0255 2.49984H2.97448L19 12.9165ZM2.33333 4.34255V2.49984V26.2175C2.33333 26.5915 2.45347 26.8988 2.69375 27.1394C2.93437 27.3797 3.24167 27.4998 3.61562 27.4998H2.33333V4.34255Z" fill="#43F89B"/>
</svg>
