<svg width="149" height="127" viewBox="0 0 149 127" fill="none" xmlns="http://www.w3.org/2000/svg">
<path d="M146.195 57.5633L81.3074 2.66574C77.5728 -0.496002 71.512 -0.496002 67.7728 2.66574L54.2986 14.0661L71.3913 28.528C75.3633 27.3924 79.9182 28.1542 83.0844 30.8331C86.2657 33.5292 87.1597 37.4159 85.785 40.7874L102.258 54.7252C106.243 53.5636 110.841 54.3151 114.025 57.0126C118.473 60.7751 118.473 66.8731 114.025 70.638C109.575 74.4035 102.367 74.4035 97.9153 70.638C94.5691 67.8039 93.7424 63.6461 95.4364 60.1582L80.0743 47.1605L80.0726 81.365C81.1862 81.8309 82.2033 82.4463 83.0844 83.1873C87.533 86.9497 87.533 93.0483 83.0844 96.8161C78.6346 100.58 71.4238 100.58 66.9804 96.8161C62.5317 93.0483 62.5317 86.9502 66.9804 83.1878C68.0464 82.2853 69.3134 81.5706 70.708 81.085V46.5617C69.3114 46.0794 68.0437 45.3643 66.9804 44.459C63.6098 41.6111 62.7994 37.4267 64.5264 33.9251L47.677 19.6675L3.18484 57.3093C-0.553801 60.474 -0.553801 65.6024 3.18484 68.7647L68.0735 123.663C71.8092 126.825 77.8689 126.825 81.6093 123.663L146.194 69.0196C149.932 65.8564 149.932 60.725 146.195 57.5633Z" fill="#DE4C36"/>
</svg>
