<svg width="42" height="32" viewBox="0 0 42 32" fill="none" xmlns="http://www.w3.org/2000/svg">
<path d="M7.8582 31.5835V12.7215L1.42383 17.521L0.166016 15.8705L20.9993 0.333496L30.054 7.04808V2.41683H33.9801V9.99704L41.8728 15.8705L40.615 17.521L34.1806 12.7215V31.5835H23.5634V20.6861H18.4353V31.5835H7.8582ZM9.94154 29.5002H16.352V18.6028H25.6467V29.5002H32.0973V11.1866L20.9993 2.94964L9.94154 11.1866V29.5002ZM17.2332 12.8455H24.7655C24.7655 11.868 24.3889 11.0634 23.6358 10.4314C22.8823 9.79982 22.0035 9.48402 20.9993 9.48402C19.9952 9.48402 19.1164 9.79877 18.3629 10.4283C17.6098 11.0575 17.2332 11.8632 17.2332 12.8455Z" fill="#43F89B"/>
</svg>
