<svg width="136" height="123" viewBox="0 0 136 123" fill="none" xmlns="http://www.w3.org/2000/svg">
<path fill-rule="evenodd" clip-rule="evenodd" d="M75.479 18.9831C71.3316 18.4011 67.1179 18.3075 62.9524 18.7C71.62 24.8951 80.5711 34.6896 86.6701 50.0688C93.1833 66.4915 103.073 75.3795 111.399 80.2175C112.616 77.9374 113.595 75.5823 114.339 73.1819C105.483 67.0131 96.253 57.1227 90.0103 41.382C86.0462 31.3865 80.8311 24.182 75.479 18.9831ZM116.065 63.1372C116.532 51.3014 111.594 39.3441 101.323 30.4928C98.3063 27.8935 95.0096 25.7169 91.5242 23.9617C94.3123 28.1429 96.8773 32.9551 99.0725 38.4907C103.643 50.0152 109.876 57.8293 116.065 63.1372ZM106.393 87.5873C96.2968 81.7773 84.9089 71.37 77.6079 52.9601C70.7823 35.7489 60.2476 26.8133 51.6907 22.1422C51.2491 21.9011 50.812 21.671 50.3802 21.4514C47.528 22.4567 44.7625 23.7154 42.1273 25.2262C42.837 25.5776 43.5583 25.9518 44.289 26.3506C54.67 32.0175 66.6775 42.5074 74.2678 61.6469C81.0936 78.8583 91.6282 87.7939 100.185 92.465C100.478 92.6251 100.77 92.7805 101.059 92.9309C101.61 92.4627 102.151 91.9802 102.683 91.4841C104.02 90.236 105.256 88.9344 106.393 87.5873ZM92.8948 98.5195C83.0793 92.5952 72.2438 82.285 65.2055 64.5382C58.3799 47.327 47.8452 38.3914 39.2883 33.7203C37.3891 32.6834 35.574 31.8499 33.9023 31.1807C33.7078 31.3561 33.5145 31.5335 33.3226 31.7127C14.9205 48.8918 15.5293 76.1985 34.6826 92.7039C50.7344 106.537 74.7168 108.393 92.8948 98.5195Z" fill="url(#paint0_linear_1133_1102)"/>
<path d="M30.6165 68.4545V83H27.1009V68.4545H30.6165ZM40.6857 72.8153C40.6384 72.2945 40.4277 71.8897 40.0536 71.6009C39.6843 71.3073 39.1564 71.1605 38.4698 71.1605C38.0153 71.1605 37.6365 71.2197 37.3335 71.3381C37.0304 71.4564 36.8031 71.6198 36.6516 71.8281C36.5001 72.0317 36.422 72.2661 36.4173 72.5312C36.4078 72.7491 36.4504 72.9408 36.5451 73.1065C36.6445 73.2723 36.7866 73.419 36.9712 73.5469C37.1606 73.67 37.3879 73.7789 37.6531 73.8736C37.9182 73.9683 38.2165 74.0511 38.5479 74.1222L39.7979 74.4062C40.5176 74.5625 41.1521 74.7708 41.7013 75.0312C42.2553 75.2917 42.7193 75.6018 43.0934 75.9616C43.4722 76.3215 43.7586 76.7358 43.9528 77.2045C44.1469 77.6733 44.2463 78.1989 44.2511 78.7812C44.2463 79.6998 44.0143 80.4882 43.555 81.1463C43.0958 81.8045 42.4353 82.3087 41.5735 82.6591C40.7165 83.0095 39.6819 83.1847 38.4698 83.1847C37.253 83.1847 36.1924 83.0024 35.288 82.6378C34.3836 82.2732 33.6805 81.7192 33.1786 80.9759C32.6767 80.2325 32.4187 79.2926 32.4045 78.1562H35.771C35.7994 78.625 35.9248 79.0156 36.1474 79.3281C36.3699 79.6406 36.6753 79.8774 37.0636 80.0384C37.4566 80.1993 37.9111 80.2798 38.4272 80.2798C38.9007 80.2798 39.3031 80.2159 39.6346 80.0881C39.9708 79.9602 40.2288 79.7827 40.4087 79.5554C40.5887 79.3281 40.681 79.0677 40.6857 78.7741C40.681 78.4995 40.5958 78.2652 40.43 78.071C40.2643 77.8722 40.0086 77.7017 39.663 77.5597C39.3221 77.4129 38.8865 77.2779 38.3562 77.1548L36.8363 76.7997C35.5768 76.5109 34.5849 76.0445 33.8604 75.4006C33.136 74.7519 32.7762 73.8759 32.7809 72.7727C32.7762 71.8731 33.0176 71.0848 33.5053 70.4077C33.993 69.7306 34.6677 69.2027 35.5295 68.8239C36.3912 68.4451 37.3737 68.2557 38.4769 68.2557C39.6038 68.2557 40.5816 68.4474 41.4102 68.831C42.2435 69.2098 42.8898 69.7424 43.3491 70.429C43.8084 71.1155 44.0427 71.911 44.0522 72.8153H40.6857ZM46.0266 83V68.4545H52.0352C53.1242 68.4545 54.064 68.651 54.8548 69.044C55.6502 69.4323 56.2634 69.991 56.6942 70.7202C57.1251 71.4446 57.3406 72.304 57.3406 73.2983C57.3406 74.3068 57.1204 75.1638 56.68 75.8693C56.2397 76.5701 55.6147 77.1051 54.805 77.4744C53.9954 77.839 53.0366 78.0213 51.9286 78.0213H48.1289V75.2514H51.2752C51.8055 75.2514 52.2482 75.1828 52.6033 75.0455C52.9632 74.9034 53.2354 74.6903 53.4201 74.4062C53.6048 74.1174 53.6971 73.7481 53.6971 73.2983C53.6971 72.8485 53.6048 72.4768 53.4201 72.1832C53.2354 71.8849 52.9632 71.6624 52.6033 71.5156C52.2435 71.3641 51.8008 71.2884 51.2752 71.2884H49.5423V83H46.0266ZM54.2156 76.3523L57.8377 83H54.0025L50.4513 76.3523H54.2156ZM62.4151 83H58.6367L63.5444 68.4545H68.2248L73.1325 83H69.354L65.9379 72.1193H65.8242L62.4151 83ZM61.9109 77.2756H69.8086V79.946H61.9109V77.2756Z" fill="#FFFCFC"/>
<defs>
<linearGradient id="paint0_linear_1133_1102" x1="101.323" y1="30.4929" x2="42.1594" y2="99.1471" gradientUnits="userSpaceOnUse">
<stop offset="0.05" stop-color="#4A4A4A"/>
<stop offset="0.303182" stop-color="#43F89B"/>
<stop offset="0.703182" stop-color="#4A4A4A"/>
<stop offset="0.878182" stop-color="#43F89B"/>
</linearGradient>
</defs>
</svg>
